<?xml version="1.0" encoding="utf-8"?>
<!DOCTYPE svg PUBLIC "-//W3C//DTD SVG 1.1//EN" "http://www.w3.org/Graphics/SVG/1.1/DTD/svg11.dtd">
<svg version="1.1" id="图形" xmlns="http://www.w3.org/2000/svg" xmlns:xlink="http://www.w3.org/1999/xlink" x="0px" y="0px" width="1024px" height="1024px" viewBox="0 0 1024 1024" enable-background="new 0 0 1024 1024" xml:space="preserve">
  <path fill="#ffffff" d="M467.215 73.916c-5.544-7.596-13.639-12.239-22.349-12.83-0.623-0.039-1.239-0.039-1.86-0.039-8.056 0-15.832 3.479-21.685 9.789l-166.94 180.119c-12.502 13.461-12.935 35.845-0.956 49.916 11.977 14.096 31.82 14.559 44.329 1.079l142.525-153.744 272.245 342.423c10.999 15.087 30.762 17.239 44.128 4.854 13.366-12.407 15.283-34.664 4.289-49.73L467.213 73.917 467.215 73.916z" transform="translate(0, 812) scale(1, -1)"/>
</svg>
